<?xml version="1.0" encoding="utf-8"?>
<!-- Generator: Adobe Illustrator 22.1.0, SVG Export Plug-In . SVG Version: 6.00 Build 0)  -->
<svg version="1.1" id="Layer_1" xmlns="http://www.w3.org/2000/svg" xmlns:xlink="http://www.w3.org/1999/xlink" x="0px" y="0px"
     viewBox="0 0 376.481 401.679" style="enable-background:new 0 0 376.481 401.679;" xml:space="preserve">
<style type="text/css">
    .st0{display:none;}
    .st1{fill:#FFFFFF;}
</style>
<rect x="-61.807" y="-49.321" class="st0" width="500" height="500"/>
<g>
    <path class="st1" d="M0,105.964h52.005v16.074H23.522v18.968h22.083v16.074H23.522v35.765H0V105.964z"/>
    <path class="st1" d="M135.528,192.844h-26.723l-16.801-33.013h-6.56v33.013H61.921v-86.88h36.964
        c20.002,0,29.922,12.598,29.922,26.933c0,11.728-6.4,20.272-15.041,23.312L135.528,192.844z M92.003,119.866h-6.56v26.497h6.56
        c8.001,0,14.082-3.04,14.082-13.32C106.085,122.906,100.005,119.866,92.003,119.866z"/>
    <path class="st1" d="M169.76,105.964h20.321l32.483,86.88h-23.522l-5.599-16.217H165.76l-5.282,16.217h-23.201L169.76,105.964z
         M188.481,162.292l-8.8-29.683l-8.963,29.683H188.481z"/>
    <path class="st1" d="M231.837,105.964h17.283l32.001,47.06v-47.06h20.482v86.88h-17.281l-32.003-47.06v47.06h-20.482V105.964z"/>
    <path class="st1" d="M314.556,184.591l32.962-62.553h-32.003v-16.074h60.966v8.254l-32.962,62.553h32.483v16.074h-61.445V184.591z"
        />
</g>
<g>
    <path class="st1" d="M45.378,85.48l-21.354-33.07l-4.075,5.464V85.48H0V1.401h19.949v33.351l22.9-33.351h21.355L37.792,38.257
        L68.7,85.48H45.378z"/>
    <path class="st1" d="M97.07,1.401h17.843l28.52,84.079H122.78l-4.917-15.694H93.557L88.921,85.48H68.55L97.07,1.401z
         M113.507,55.912l-7.727-28.726l-7.867,28.726H113.507z"/>
    <path class="st1" d="M151.572,1.401h20.652V85.48h-20.652V1.401z"/>
    <path class="st1" d="M209.03,86.88c-11.802,0-20.793-4.624-26.694-10.369l4.918-16.255c5.76,5.605,12.785,10.65,21.776,10.65
        c5.339,0,8.991-3.643,8.85-8.269c-0.141-4.764-2.95-7.566-11.661-10.789c-15.172-5.606-22.057-13.873-22.057-26.344
        C184.163,9.388,194.98,0,210.716,0c9.271,0,17.701,2.942,23.602,7.706l-4.497,14.854c-5.76-3.923-11.659-6.585-18.122-6.585
        c-4.918,0-7.587,2.801-7.587,6.726c0,3.784,2.248,6.306,8.57,8.689c16.156,6.025,24.867,14.153,24.867,27.886
        C237.549,79.875,223.64,86.88,209.03,86.88z"/>
    <path class="st1" d="M248.782,1.401h47.485v15.555h-26.833v17.517h21.214v15.553h-21.214v19.898h26.833V85.48h-47.485V1.401z"/>
    <path class="st1" d="M360.887,86.46c-1.402,0.021-5.83,0.15-10.085-2.33c-4.033-2.35-7.365-6.804-9.864-14.765l-5.059-15.835
        h-6.322V85.48h-20.652V1.401h32.454c17.562,0,26.271,12.192,26.271,26.065c0,11.35-5.619,19.619-13.347,22.561l5.762,14.854
        c0.461,1.186,0.901,2.221,1.333,3.122c0.408,0.852,0.737,1.501,1.285,2.319c0.573,0.855,1.118,1.67,2.048,2.427
        c0.51,0.415,1.693,1.356,3.496,1.622c0.78,0.115,2.643,0.247,4.482-0.903c2.178-1.363,2.761-3.549,2.874-4.013
        c0.473,1.143,1.202,3.368,0.805,6.076c-0.767,5.231-5.109,8.002-6.128,8.651C366.733,86.419,363.249,86.425,360.887,86.46z
         M335.317,14.854h-5.76v25.643h5.76c7.025,0,12.364-2.942,12.364-12.891C347.681,17.796,342.343,14.854,335.317,14.854z"/>
</g>
<path class="st1" d="M26.23,294.214H0v-81.961h22.694c18.234,0,28.465,6.966,28.465,20.352c0,8.743-5.952,16.12-16.186,18.034
    c13.395,1.366,20.838,10.517,20.838,21.036C55.811,285.333,45.208,294.214,26.23,294.214z M6.324,216.349v32.648h15.999
    c15.07,0,22.513-5.736,22.513-16.255c0-11.065-7.631-16.393-22.513-16.393H6.324z M25.858,253.097H6.324v37.02h19.534
    c15.442,0,23.626-7.377,23.626-18.443C49.484,260.747,41.485,253.097,25.858,253.097z"/>
<path class="st1" d="M74.799,294.214v-81.961h47.812v4.097H81.123v32.648h34.048v4.099H81.123v37.02h41.488v4.097H74.799z"/>
<path class="st1" d="M143.831,294.214v-81.961h47.812v4.097h-41.488v32.648h34.048v4.099h-34.048v37.02h41.488v4.097H143.831z"/>
<path class="st1" d="M237.792,258.97h-18.606v35.244h-6.324v-81.961h24.37c18.046,0,29.953,8.196,29.953,23.359
    c0,13.797-10.231,21.447-22.882,22.813l27.534,35.79h-7.255L237.792,258.97z M236.86,216.349h-17.674v38.524h17.674
    c14.514,0,24.001-6.422,24.001-19.262C260.861,222.907,251.558,216.349,236.86,216.349z"/>
<path class="st1" d="M361.341,296.015c-7.172,0-13.023-1.385-21.324-7.205c-5.285,4.434-12.644,7.205-22.46,7.205
    c-18.492,0-32.835-7.621-32.835-23.418c0-10.529,8.492-17.183,18.304-22.724c-5.281-7.621-8.301-14.55-8.301-21.063
    c0-12.192,12.078-19.675,26.418-19.675c13.964,0,23.968,6.373,23.968,16.351c0,12.471-13.964,18.706-26.421,25.635
    c2.078,2.493,4.152,4.988,6.605,7.621c5.285,5.957,10.191,11.363,14.343,15.103c2.074-5.541,3.398-15.657,3.398-22.033h23.965v7.207
    h-14.152c-0.379,5.819-1.133,14.41-5.851,21.892c7.359,6.373,11.702,7.761,16.609,7.761c2.372,0,4.339-0.603,4.339-0.603
    c4.269-1.266,6.214-4.116,6.808-5.092c0.497,0.518,1.009,1.192,1.346,2.026c1.188,2.937-0.724,5.541-1.265,6.225
    c-0.539,0.641-1.416,1.529-2.769,2.359C368.356,295.861,363.907,296.015,361.341,296.015z M316.237,266.362l-7.359-8.728
    c-5.473,3.878-9.812,8.728-9.812,15.103c0,9.422,7.172,15.519,19.816,15.519c6.227,0,10.188-1.941,13.586-5.128
    C330.392,281.328,318.881,269.273,316.237,266.362z M321.709,216.48c-8.867,0-13.586,4.71-13.586,12.192
    c0,5.544,1.887,10.253,5.281,15.66c10.191-5.406,19.249-10.394,19.249-18.984C332.654,219.666,328.127,216.48,321.709,216.48z"/>
<path class="st1" d="M21.258,400.409H0v-84.622h18.393c14.773,0,23.066,7.192,23.066,21.013c0,9.026-4.826,16.643-13.116,18.619
    c10.854,1.41,16.883,10.858,16.883,21.719C45.225,391.24,36.633,400.409,21.258,400.409z M5.124,320.017v33.707h12.967
    c12.209,0,18.241-5.922,18.241-16.783c0-11.425-6.181-16.925-18.241-16.925H5.124z M20.953,357.957H5.124v38.222h15.829
    c12.513,0,19.148-7.616,19.148-19.041C40.101,365.855,33.619,357.957,20.953,357.957z"/>
<path class="st1" d="M85.335,401.679c-17.187,0-28.492-10.439-28.492-33.286v-52.606h5.124v52.606
    c0,19.887,9.347,28.771,23.368,28.771c14.322,0,23.669-9.026,23.669-28.771v-52.606h5.127v52.606
    C114.131,391.24,102.823,401.679,85.335,401.679z"/>
<path class="st1" d="M153.789,364.021h-15.077v36.388h-5.124v-84.622h19.748c14.623,0,24.272,8.462,24.272,24.117
    c0,14.245-8.291,22.143-18.542,23.553l22.311,36.952h-5.879L153.789,364.021z M153.034,320.017h-14.322v39.774h14.322
    c11.761,0,19.449-6.631,19.449-19.887C172.483,326.788,164.945,320.017,153.034,320.017z"/>
<path class="st1" d="M227.216,401.537c-20.655,0-35.881-15.091-35.881-43.44c0-28.065,15.378-43.298,36.03-43.298
    c10.102,0,17.336,2.256,22.917,5.782v4.796c-5.581-3.526-12.212-6.206-22.013-6.206c-19.145,0-31.81,14.105-31.81,39.208
    c0,24.823,12.364,38.786,31.208,38.786c8.443,0,15.68-1.834,20.503-5.64v-25.951h-14.322v-4.232h19.449v32.579
    C248.623,397.589,239.577,401.537,227.216,401.537z"/>
<path class="st1" d="M272.754,400.409v-84.622h38.743v4.23h-33.619v33.707h27.59v4.232h-27.59v38.222h33.619v4.23H272.754z"/>
<path class="st1" d="M348.893,364.021h-15.077v36.388h-5.124v-84.622h19.748c14.623,0,24.272,8.462,24.272,24.117
    c0,14.245-8.291,22.143-18.542,23.553l22.311,36.952h-5.879L348.893,364.021z M348.138,320.017h-14.322v39.774h14.322
    c11.761,0,19.449-6.631,19.449-19.887C367.587,326.788,360.049,320.017,348.138,320.017z"/>
</svg>
