<?xml version="1.0" encoding="utf-8"?>
<!-- Generator: Adobe Illustrator 22.1.0, SVG Export Plug-In . SVG Version: 6.00 Build 0)  -->
<svg version="1.1" id="Layer_1" xmlns="http://www.w3.org/2000/svg" xmlns:xlink="http://www.w3.org/1999/xlink" x="0px" y="0px"
	 viewBox="0 0 200 28.284" style="enable-background:new 0 0 200 28.284;" xml:space="preserve">
<style type="text/css">
	.st0{fill:#231F20;}
</style>
<g>
	<path class="st0" d="M35.172,0l-6.39,8.681c0,0,33.126,0,34.825,0c1.76,0,1.737,0.669,0.877,1.834
		c-0.874,1.183-2.336,3.241-3.226,4.442c-0.452,0.611-1.268,1.722,1.438,1.722c2.861,0,14.241,0,14.241,0s2.296-3.124,4.22-5.735
		C83.775,7.392,81.384,0,72.025,0C63.649,0,35.172,0,35.172,0L35.172,0z"/>
	<path class="st0" d="M26.196,28.283l12.834-17.439c0,0,14.228,0.001,15.927,0.001c1.76,0,1.737,0.668,0.877,1.834
		c-0.874,1.183-2.361,3.219-3.251,4.421c-0.451,0.61-1.268,1.723,1.438,1.723c2.861,0,21.337,0,21.337,0
		c-1.774,2.431-7.531,9.461-17.866,9.461C49.117,28.283,26.196,28.283,26.196,28.283L26.196,28.283z"/>
	<path class="st0" d="M99.7,18.82l-6.96,9.462H74.38c0,0,6.956-9.461,6.962-9.461L99.7,18.82L99.7,18.82z"/>
	<polygon class="st0" points="127.825,16.68 82.92,16.68 95.199,0 113.554,0 106.515,9.564 114.708,9.564 121.749,0 140.101,0 
		127.825,16.68 	"/>
	<path class="st0" d="M126.25,18.822l-6.963,9.461h-18.353c0,0,6.956-9.461,6.962-9.461H126.25L126.25,18.822z"/>
	<polygon class="st0" points="0,22.552 27.047,22.552 25.569,24.562 0,24.562 0,22.552 	"/>
	<polygon class="st0" points="0,18.822 29.795,18.822 28.314,20.829 0,20.829 0,18.822 	"/>
	<polygon class="st0" points="0,26.285 24.3,26.285 22.83,28.283 0,28.283 0,26.285 	"/>
	<polygon class="st0" points="200,24.562 173.058,24.562 174.536,22.552 200,22.553 200,24.562 	"/>
	<polygon class="st0" points="200,28.283 170.319,28.284 171.789,26.285 200,26.285 200,28.283 	"/>
	<polygon class="st0" points="177.281,18.822 200,18.822 200,20.83 175.804,20.832 177.281,18.822 	"/>
	<path class="st0" d="M165.52,0l-12.278,16.68h-19.448c0,0,12.28-16.68,12.287-16.68H165.52L165.52,0z"/>
	<path class="st0" d="M132.219,18.822c0.001,0-1.341,1.834-1.993,2.715c-2.306,3.116-0.266,6.746,7.256,6.746
		c8.688,0,29.476,0,29.476,0l6.962-9.461H132.219L132.219,18.822z"/>
</g>
</svg>
