<?xml version="1.0" encoding="utf-8"?>
<!-- Generator: Adobe Illustrator 22.1.0, SVG Export Plug-In . SVG Version: 6.00 Build 0)  -->
<svg version="1.1" id="Layer_1" xmlns="http://www.w3.org/2000/svg" xmlns:xlink="http://www.w3.org/1999/xlink" x="0px" y="0px"
	 viewBox="0 0 30 30" style="enable-background:new 0 0 30 30;" xml:space="preserve">
<style type="text/css">
	.st0{fill:#FFFFFF;}
</style>
<path class="st0" d="M15,3.523c3.738,0,4.181,0.014,5.657,0.082c1.365,0.062,2.106,0.29,2.6,0.482
	c0.608,0.224,1.158,0.582,1.61,1.047c0.465,0.452,0.823,1.002,1.047,1.61c0.192,0.493,0.42,1.235,0.482,2.6
	c0.067,1.476,0.082,1.919,0.082,5.657s-0.014,4.181-0.082,5.657c-0.062,1.365-0.29,2.106-0.482,2.6
	c-0.471,1.221-1.436,2.186-2.657,2.657c-0.493,0.192-1.235,0.42-2.6,0.482c-1.476,0.067-1.919,0.082-5.657,0.082
	s-4.181-0.014-5.657-0.082c-1.365-0.062-2.106-0.29-2.6-0.482c-0.608-0.224-1.158-0.582-1.61-1.047
	c-0.465-0.452-0.823-1.002-1.047-1.61c-0.192-0.493-0.42-1.235-0.482-2.6C3.537,19.181,3.522,18.738,3.522,15
	s0.014-4.181,0.082-5.657c0.062-1.365,0.29-2.106,0.482-2.6c0.224-0.608,0.582-1.158,1.047-1.61c0.452-0.465,1.002-0.823,1.61-1.047
	c0.493-0.192,1.235-0.42,2.6-0.482C10.819,3.537,11.262,3.522,15,3.523 M15,1c-3.802,0-4.279,0.016-5.772,0.084
	C7.738,1.152,6.72,1.389,5.83,1.735C4.895,2.087,4.049,2.638,3.35,3.35c-0.712,0.699-1.264,1.545-1.615,2.48
	C1.389,6.72,1.152,7.738,1.085,9.228C1.016,10.721,1,11.198,1,15s0.016,4.279,0.085,5.772c0.068,1.49,0.305,2.508,0.651,3.398
	c0.352,0.934,0.903,1.78,1.615,2.48c0.699,0.712,1.546,1.263,2.48,1.615c0.891,0.346,1.908,0.583,3.398,0.651
	C10.721,28.984,11.198,29,15,29s4.279-0.016,5.772-0.084c1.49-0.068,2.508-0.305,3.398-0.651c1.881-0.727,3.367-2.214,4.094-4.094
	c0.346-0.891,0.583-1.908,0.651-3.398C28.984,19.279,29,18.802,29,15s-0.016-4.279-0.084-5.772c-0.068-1.49-0.305-2.508-0.651-3.398
	c-0.352-0.934-0.903-1.78-1.615-2.48c-0.699-0.712-1.546-1.264-2.48-1.615c-0.891-0.346-1.908-0.582-3.398-0.65
	C19.279,1.016,18.802,1,15,1L15,1L15,1z"/>
<path class="st0" d="M15,7.811c-3.97,0-7.189,3.219-7.189,7.189s3.219,7.189,7.189,7.189S22.189,18.97,22.189,15l0,0
	C22.189,11.029,18.97,7.811,15,7.811z M15,19.667c-2.577,0-4.667-2.089-4.667-4.667s2.089-4.667,4.667-4.667
	c2.577,0,4.667,2.089,4.667,4.667C19.667,17.577,17.577,19.667,15,19.667z"/>
<circle class="st0" cx="22.473" cy="7.527" r="1.68"/>
</svg>
