<?xml version="1.0" encoding="utf-8"?>
<!-- Generator: Adobe Illustrator 22.1.0, SVG Export Plug-In . SVG Version: 6.00 Build 0)  -->
<svg version="1.1" id="Layer_1" xmlns="http://www.w3.org/2000/svg" xmlns:xlink="http://www.w3.org/1999/xlink" x="0px" y="0px"
	 viewBox="0 0 285.177 33.65621" style="enable-background:new 0 0 285.177 33.65621;" xml:space="preserve">
<style type="text/css">
	.st0{fill:#231F20;}
</style>
<g>
	<path class="st0" d="M157.45642,0.54259h17.64273v6.02594h-9.66286v7.11113h7.49174v6.02594h-7.49174v13.408h-7.97987V0.54259z"/>
	<path class="st0" d="M203.43398,33.11361h-9.0658l-5.6998-12.37656h-2.22559v12.37656h-7.97986V0.54259h12.53999
		c6.78572,0,10.15097,4.72284,10.15097,10.09723c0,4.39669-2.1711,7.59998-5.10272,8.73964L203.43398,33.11361z M188.66838,5.75428
		h-2.22559v9.93379h2.22559c2.71445,0,4.77733-1.13967,4.77733-4.99377C193.44571,6.89395,191.38283,5.75428,188.66838,5.75428z"/>
	<path class="st0" d="M215.04707,0.54259h6.89395l11.01971,32.57102h-7.97987l-1.89944-6.07969h-9.39119l-1.79196,6.07969h-7.87091
		L215.04707,0.54259z M221.39844,21.65953l-2.98537-11.12794l-3.04059,11.12794H221.39844z"/>
	<path class="st0" d="M236.1066,0.54259h5.86324l10.85628,17.64273V0.54259h6.94843v32.57102h-5.8625l-10.85701-17.64273v17.64273
		h-6.94843V0.54259z"/>
	<path class="st0" d="M264.16901,30.01929l11.18243-23.45075h-10.85703V0.54259H285.177v3.09432l-11.1824,23.45075h11.01968v6.02594
		h-20.84528V30.01929z"/>
</g>
<g>
	<path class="st0" d="M17.53377,33.11361L9.28261,20.30268l-1.5744,2.11663v10.6943H0V0.54259h7.7082v12.91989l8.84824-12.91989
		h8.25153L14.60252,14.82007l11.94256,18.29354H17.53377z"/>
	<path class="st0" d="M37.507,0.54259h6.89431l11.01971,32.57102h-7.97987l-1.89981-6.07969h-9.39157l-1.79122,6.07969h-7.87127
		L37.507,0.54259z M43.85835,21.65953L40.87262,10.5316l-3.03984,11.12794H43.85835z"/>
	<path class="st0" d="M58.56614,0.54259h7.97987v32.57102h-7.97987V0.54259z"/>
	<path class="st0" d="M80.76753,33.65621c-4.56013,0-8.03435-1.79122-10.31441-4.01681l1.90018-6.29687
		c2.22559,2.17111,4.94002,4.12576,8.41423,4.12576c2.06289,0,3.47421-1.41133,3.41974-3.20328
		c-0.05448-1.8457-1.13967-2.93089-4.50566-4.17951c-5.8625-2.17184-8.52245-5.37439-8.52245-10.20545
		C71.15916,3.63692,75.33866,0,81.41909,0c3.58244,0,6.83946,1.13967,9.11953,2.98536l-1.73747,5.75428
		c-2.22559-1.51955-4.50492-2.551-7.00217-2.551c-1.90018,0-2.93162,1.08519-2.93162,2.60548
		c0,1.46581,0.86874,2.44277,3.31151,3.36599c6.24239,2.33381,9.60838,5.48262,9.60838,10.80253
		C91.78725,30.94251,86.41286,33.65621,80.76753,33.65621z"/>
	<path class="st0" d="M96.12725,0.54259h18.34803v6.02594h-10.36816v6.78572h8.19705v6.02521h-8.19705v7.7082h10.36816v6.02594
		H96.12725V0.54259z"/>
	<path class="st0" d="M139.44411,33.4935c-0.54185,0.00821-2.25259,0.05811-3.89679-0.90242
		c-1.5583-0.91033-2.8459-2.63566-3.8114-5.71986l-1.95467-6.13417h-2.44277v12.37656h-7.97987V0.54259h12.54001
		c6.78572,0,10.15097,4.72284,10.15097,10.09723c0,4.39669-2.17111,7.59998-5.15721,8.73964l2.22632,5.75428
		c0.17809,0.45926,0.34807,0.86027,0.51498,1.20945c0.15779,0.33006,0.28484,0.58159,0.49658,0.89853
		c0.22124,0.33114,0.4321,0.64677,0.79118,0.94022c0.19695,0.16093,0.65421,0.52511,1.35074,0.62822
		c0.30122,0.04459,1.02133,0.09575,1.73177-0.34998c0.8414-0.52791,1.06682-1.37486,1.11032-1.55446
		c0.18285,0.44291,0.46437,1.30472,0.3109,2.3539c-0.29646,2.02653-1.9742,3.09969-2.36771,3.3514
		C141.70285,33.47751,140.35661,33.47968,139.44411,33.4935z M129.56407,5.75428h-2.22559v9.93379h2.22559
		c2.71443,0,4.77731-1.13967,4.77731-4.99377C134.34138,6.89395,132.2785,5.75428,129.56407,5.75428z"/>
</g>
</svg>
