<?xml version="1.0" encoding="utf-8"?>
<!-- Generator: Adobe Illustrator 22.1.0, SVG Export Plug-In . SVG Version: 6.00 Build 0)  -->
<svg version="1.1" id="Layer_1" xmlns="http://www.w3.org/2000/svg" xmlns:xlink="http://www.w3.org/1999/xlink" x="0px" y="0px"
	 viewBox="0 0 200 42.722" style="enable-background:new 0 0 200 42.722;" xml:space="preserve">
<style type="text/css">
	.st0{fill:#737373;}
	.st1{fill:#F25022;}
	.st2{fill:#7FBA00;}
	.st3{fill:#00A4EF;}
	.st4{fill:#FFB900;}
</style>
<title>Microsoft Logo</title>
<path class="st0" d="M70.608,24.607l-1.192,3.378h-0.099c-0.199-0.762-0.563-1.921-1.159-3.312L61.765,8.611h-6.259v25.6h4.14
	V18.414c0-0.994,0-2.12-0.033-3.511c-0.033-0.695-0.099-1.225-0.132-1.623h0.099c0.199,0.994,0.431,1.722,0.596,2.186l7.683,18.679
	h2.914l7.617-18.844c0.166-0.431,0.331-1.292,0.497-2.02h0.099c-0.099,1.888-0.166,3.577-0.199,4.603v16.228h4.405V8.544h-6.027
	L70.608,24.607z M87.365,15.764h4.305v18.347h-4.305V15.764z M89.551,8.015c-0.729,0-1.325,0.265-1.821,0.729
	c-0.497,0.464-0.762,1.06-0.762,1.788c0,0.695,0.265,1.292,0.762,1.755c0.497,0.464,1.093,0.695,1.821,0.695
	c0.729,0,1.358-0.265,1.821-0.695c0.497-0.464,0.762-1.06,0.762-1.755c0-0.695-0.265-1.292-0.762-1.788
	C90.942,8.28,90.313,8.015,89.551,8.015 M106.938,15.599c-0.795-0.166-1.623-0.265-2.418-0.265c-1.954,0-3.742,0.431-5.233,1.292
	c-1.49,0.861-2.683,2.053-3.444,3.544c-0.795,1.523-1.192,3.279-1.192,5.299c0,1.755,0.397,3.312,1.159,4.736
	c0.762,1.391,1.821,2.517,3.246,3.279c1.358,0.762,2.948,1.159,4.736,1.159c2.053,0,3.809-0.431,5.2-1.225l0.033-0.033v-3.974
	l-0.166,0.132c-0.629,0.464-1.358,0.861-2.086,1.093c-0.762,0.265-1.457,0.397-2.053,0.397c-1.722,0-3.08-0.497-4.04-1.59
	c-0.994-1.06-1.49-2.517-1.49-4.338c0-1.888,0.497-3.378,1.523-4.471c1.027-1.093,2.385-1.656,4.04-1.656
	c1.391,0,2.815,0.464,4.107,1.391l0.166,0.132v-4.206l-0.033-0.033C108.429,16.029,107.799,15.764,106.938,15.599 M121.146,15.466
	c-1.06,0-2.053,0.331-2.914,1.027c-0.729,0.596-1.225,1.457-1.656,2.484h-0.033v-3.212h-4.305v18.347h4.305V24.74
	c0-1.59,0.331-2.914,1.06-3.875c0.729-0.994,1.656-1.49,2.782-1.49c0.397,0,0.795,0.099,1.292,0.166
	c0.464,0.132,0.795,0.265,1.027,0.431l0.166,0.132v-4.305l-0.099-0.033C122.471,15.565,121.874,15.466,121.146,15.466
	 M151.581,23.381c-1.358-0.563-2.219-0.994-2.616-1.358c-0.331-0.331-0.497-0.795-0.497-1.391c0-0.497,0.199-0.994,0.695-1.325
	s1.06-0.497,1.888-0.497c0.729,0,1.49,0.132,2.219,0.331c0.729,0.199,1.391,0.497,1.921,0.894l0.166,0.132v-4.04l-0.099-0.033
	c-0.497-0.199-1.159-0.397-1.954-0.563c-0.795-0.132-1.523-0.199-2.12-0.199c-2.053,0-3.742,0.497-5.067,1.59
	c-1.325,1.027-1.954,2.418-1.954,4.04c0,0.861,0.132,1.623,0.431,2.252s0.729,1.225,1.325,1.722c0.596,0.464,1.457,0.994,2.649,1.49
	c0.994,0.431,1.755,0.762,2.219,1.027c0.464,0.265,0.762,0.563,0.994,0.795c0.166,0.265,0.265,0.596,0.265,1.027
	c0,1.225-0.927,1.821-2.815,1.821c-0.729,0-1.49-0.132-2.385-0.431s-1.722-0.729-2.418-1.225l-0.166-0.132v4.206l0.099,0.033
	c0.629,0.298,1.391,0.497,2.318,0.729c0.927,0.166,1.755,0.298,2.484,0.298c2.219,0,4.04-0.497,5.332-1.59
	c1.325-1.06,2.02-2.418,2.02-4.173c0-1.225-0.331-2.318-1.06-3.146C154.496,24.872,153.304,24.044,151.581,23.381 M191.323,28.746
	c0,3.875,1.821,5.829,5.464,5.829c0.596,0,1.225-0.099,1.822-0.199c0.629-0.132,1.093-0.298,1.358-0.431L200,33.913v-3.544
	l-0.166,0.132c-0.265,0.166-0.497,0.298-0.894,0.397c-0.331,0.099-0.629,0.132-0.861,0.132c-0.861,0-1.457-0.199-1.888-0.695
	c-0.397-0.464-0.596-1.225-0.596-2.351v-9.77h0.066v-7.882l-0.132,0.033l-4.107,1.225l-0.099,0.033L191.323,28.746z M184.832,13.446
	c0-1.06,0.265-1.888,0.729-2.418c0.464-0.53,1.159-0.795,2.02-0.795c0.596,0,1.225,0.132,1.921,0.431l0.166,0.099V7.021
	l-0.099-0.033c-0.596-0.199-1.391-0.331-2.418-0.331c-1.292,0-2.418,0.298-3.444,0.795c-1.027,0.563-1.788,1.325-2.351,2.351
	c-0.563,0.994-0.861,2.12-0.861,3.411v20.897h4.338V13.446H184.832z M182.149,19.308H200v-3.544h-22.52v3.511h4.67L182.149,19.308
	L182.149,19.308z"/>
<path id="o" class="st0" d="M132.87,15.367c-3.014,0-5.431,0.894-7.12,2.649c-1.722,1.755-2.55,4.173-2.55,7.22
	c0,2.848,0.861,5.166,2.517,6.855c1.656,1.656,3.908,2.517,6.723,2.517c2.947,0,5.299-0.894,6.988-2.683
	c1.722-1.788,2.55-4.173,2.55-7.12c0-2.914-0.795-5.233-2.418-6.922C138.003,16.195,135.718,15.367,132.87,15.367 M136.314,29.475
	c-0.795,1.027-2.053,1.523-3.61,1.523s-2.815-0.497-3.709-1.59c-0.894-1.027-1.325-2.517-1.325-4.405
	c0-1.954,0.464-3.444,1.325-4.504c0.894-1.06,2.12-1.59,3.676-1.59c1.523,0,2.716,0.497,3.577,1.523
	c0.861,1.027,1.325,2.517,1.325,4.471C137.506,26.892,137.142,28.448,136.314,29.475"/>
<g transform="translate(105.7)">
	<path id="o_1_" class="st0" d="M62.672,15.169c-3.014,0-5.431,0.894-7.12,2.649c-1.722,1.755-2.55,4.173-2.55,7.22
		c0,2.848,0.861,5.166,2.517,6.855c1.656,1.656,3.908,2.517,6.723,2.517c2.948,0,5.299-0.894,6.988-2.683
		c1.722-1.788,2.55-4.173,2.55-7.12c0-2.914-0.795-5.233-2.418-6.922C67.806,15.997,65.521,15.169,62.672,15.169 M66.117,29.277
		c-0.795,1.027-2.053,1.523-3.61,1.523s-2.815-0.497-3.709-1.59c-0.894-1.027-1.325-2.517-1.325-4.405
		c0-1.954,0.464-3.444,1.325-4.504c0.894-1.06,2.12-1.59,3.676-1.59c1.523,0,2.716,0.497,3.577,1.523
		c0.861,1.027,1.325,2.517,1.325,4.471C67.309,26.694,66.945,28.25,66.117,29.277"/>
</g>
<path class="st1" d="M0,0h20.301v20.301H0V0z"/>
<path class="st2" d="M22.421,0h20.301v20.301H22.421V0z"/>
<path class="st3" d="M0,22.421h20.301v20.301H0V22.421z"/>
<path class="st4" d="M22.421,22.421h20.301v20.301H22.421V22.421z"/>
</svg>
