<?xml version="1.0" encoding="utf-8"?>
<!-- Generator: Adobe Illustrator 22.1.0, SVG Export Plug-In . SVG Version: 6.00 Build 0)  -->
<svg version="1.1" id="Layer_1" xmlns="http://www.w3.org/2000/svg" xmlns:xlink="http://www.w3.org/1999/xlink" x="0px" y="0px"
	 viewBox="0 0 200 41.547" style="enable-background:new 0 0 200 41.547;" xml:space="preserve">
<g>
	<path d="M37.455,20.907c0,6.579,0,13.159,0,19.794c-2.995,0-5.822,0-8.759,0c0-13.267,0-26.505,0-39.892
		c2.222,0,4.416-0.051,6.603,0.049c0.377,0.017,0.831,0.623,1.069,1.056c4.4,8.02,8.773,16.056,13.154,24.087
		c0.196,0.36,0.421,0.704,0.729,1.217c0.311-0.524,0.552-0.901,0.766-1.294C55.359,17.92,59.71,9.92,64.019,1.898
		c0.435-0.809,0.896-1.162,1.847-1.12c1.892,0.085,3.791,0.025,5.761,0.025c0,13.356,0,26.565,0,39.866c-2.848,0-5.662,0-8.615,0
		c0-6.61,0-13.195,0-19.78c-0.093-0.033-0.186-0.067-0.279-0.1c-0.225,0.369-0.465,0.729-0.672,1.107
		c-3.245,5.948-6.53,11.876-9.692,17.868c-0.632,1.197-1.51,0.919-2.432,1.007c-0.9,0.085-1.428-0.186-1.886-1.044
		c-3.133-5.865-6.335-11.692-9.517-17.531c-0.243-0.445-0.5-0.882-0.751-1.323C37.673,20.886,37.564,20.896,37.455,20.907z"/>
	<path d="M149.637,24.288c2.237-6.218,4.356-12.108,6.475-17.998c0.559-1.553,1.086-3.118,1.703-4.648
		c0.139-0.344,0.586-0.793,0.9-0.8c2.835-0.062,5.671-0.036,8.696-0.036c-0.855,2.449-1.652,4.756-2.465,7.058
		c-3.724,10.532-7.467,21.057-11.156,31.602c-0.352,1.006-0.813,1.39-1.885,1.32c-1.517-0.099-3.044-0.025-4.615-0.025
		c-2.484-7.064-4.947-14.069-7.528-21.408c-1.864,5.316-3.598,10.262-5.332,15.209c-0.602,1.717-1.229,3.426-1.79,5.156
		c-0.24,0.739-0.572,1.114-1.427,1.063c-1.31-0.078-2.629-0.057-3.941-0.006c-0.733,0.028-1.12-0.175-1.384-0.921
		c-4.485-12.687-9.002-25.364-13.509-38.043c-0.097-0.272-0.165-0.554-0.296-1.001c3.056,0,6.003-0.026,8.948,0.041
		c0.281,0.006,0.674,0.547,0.804,0.914c2.456,6.941,4.879,13.893,7.312,20.842c0.166,0.474,0.353,0.941,0.606,1.611
		c0.234-0.558,0.405-0.921,0.541-1.296c2.525-6.963,5.091-13.912,7.527-20.905c0.477-1.37,1.349-1.146,2.34-1.241
		c1.076-0.103,1.435,0.377,1.752,1.311c2.351,6.932,4.76,13.845,7.155,20.762C149.203,23.242,149.372,23.623,149.637,24.288z"/>
	<path d="M88.179,33.398c3.52,0,6.906,0,10.292,0c3.345,0,6.691,0,10.131,0c0,2.462,0,4.849,0,7.299c-9.677,0-19.284,0-29.009,0
		c0-13.242,0-26.475,0-39.801c9.629,0,19.27,0,29.008,0c0,2.384,0,4.772,0,7.297c-6.818,0-13.577,0-20.423,0
		c0,2.745,0,5.354,0,8.087c5.432,0,10.879,0,16.437,0c0,2.585,0,5.05,0,7.643c-5.457,0-10.902,0-16.436,0
		C88.179,27.114,88.179,30.179,88.179,33.398z"/>
	<path d="M168.006,32.915c2.266-1.565,4.349-3.003,6.367-4.396c1.037,1.133,1.899,2.307,2.984,3.216
		c2.634,2.206,5.68,3.178,9.11,2.387c0.843-0.194,1.69-0.596,2.4-1.094c1.563-1.097,2.367-2.635,2.118-4.594
		c-0.242-1.905-1.505-3.025-3.171-3.632c-1.985-0.723-4.037-1.264-6.062-1.873c-2.853-0.858-5.616-1.907-7.987-3.78
		c-4.874-3.85-5.262-10.529-0.859-14.931c2.442-2.442,5.481-3.651,8.84-4.049c6.059-0.718,11.346,0.786,15.393,5.625
		c0.265,0.317,0.51,0.652,0.842,1.079c-2.173,1.528-4.269,3.003-6.41,4.509c-0.818-0.82-1.491-1.654-2.315-2.292
		c-2.407-1.864-5.103-2.152-7.923-1.126c-1.296,0.472-2.284,1.344-2.419,2.835c-0.133,1.468,0.605,2.548,1.792,3.27
		c0.745,0.454,1.603,0.747,2.44,1.022c3.372,1.108,6.869,1.919,10.114,3.317c9.261,3.992,8.154,15.541,1.677,20.061
		c-7.261,5.066-19.552,3.735-25.103-2.959C169.19,34.737,168.668,33.863,168.006,32.915z"/>
	<path d="M0,0.869c7.145,0,14.206,0,21.347,0c0,9.579,0,19.094,0,28.894c-1.342-0.785-2.575-1.47-3.759-2.233
		c-0.206-0.133-0.271-0.587-0.284-0.898c-0.037-0.883-0.013-1.768-0.013-2.759c-0.843,0-1.576,0-2.384,0
		c-0.061,0.628-0.12,1.235-0.196,2.024c-1.078-0.611-2.058-1.091-2.953-1.696c-0.765-0.517-1.366-0.51-2.173-0.026
		C6.468,26.043,3.301,27.826,0,29.73C0,20.038,0,10.509,0,0.869z"/>
</g>
</svg>
