<?xml version="1.0" encoding="utf-8"?>
<!-- Generator: Adobe Illustrator 22.1.0, SVG Export Plug-In . SVG Version: 6.00 Build 0)  -->
<svg version="1.1" id="Layer_1" xmlns="http://www.w3.org/2000/svg" xmlns:xlink="http://www.w3.org/1999/xlink" x="0px" y="0px"
	 viewBox="0 0 200 112.977" style="enable-background:new 0 0 200 112.977;" xml:space="preserve">
<style type="text/css">
	.st0{fill:#EE3C47;}
	.st1{fill:#FCE62B;}
</style>
<g id="Layer_x0020_1">
	<g id="_431106080">
		<g>
			<path class="st0" d="M194.241,70.344c0.337,0,1.832,0.037,1.832,1.608c0,0.785-0.598,1.234-1.272,1.346v-0.075
				c0.299,0.037,0.524,0.337,0.673,0.636l1.01,2.319h-0.823l-0.972-2.169c-0.15-0.299-0.224-0.486-0.711-0.486h-0.673v2.655h-0.785
				v-5.871h1.683L194.241,70.344z M193.307,72.887L193.307,72.887h0.711c0.823,0,1.234-0.486,1.234-0.935
				c0-0.337-0.112-0.935-1.047-0.935h-0.898V72.887z M194.316,68.287L194.316,68.287c2.73,0,4.974,2.244,4.974,4.974
				c0,2.73-2.244,4.974-4.974,4.974c-2.73,0-4.974-2.244-4.974-4.974C189.342,70.531,191.586,68.287,194.316,68.287L194.316,68.287z
				 M194.316,77.562L194.316,77.562c2.393,0,4.301-1.907,4.301-4.301c0-2.393-1.907-4.301-4.301-4.301
				c-2.393,0-4.301,1.907-4.301,4.301C190.016,75.655,191.923,77.562,194.316,77.562L194.316,77.562z"/>
			<path class="st0" d="M194.316,78.945c-3.134,0-5.683-2.549-5.683-5.683c0-3.134,2.549-5.683,5.683-5.683
				c3.134,0,5.684,2.549,5.684,5.683C200,76.395,197.45,78.945,194.316,78.945z M194.016,76.84c0.379,0.029,0.77,0.001,1.129-0.081
				l-1.103-2.46c-0.009-0.019-0.018-0.037-0.026-0.053V76.84z M191.811,70.666c-0.673,0.649-1.086,1.565-1.086,2.596
				c0,1.03,0.413,1.946,1.086,2.596V70.666z M196.078,73.48c0.011,0.02,0.021,0.041,0.032,0.062l0.915,2.1
				c0.552-0.63,0.882-1.459,0.882-2.381c0-1.639-1.045-2.989-2.521-3.435c0.883,0.334,1.397,1.087,1.397,2.126
				C196.784,72.566,196.522,73.104,196.078,73.48z M194.016,72.178L194.016,72.178c0.396,0,0.525-0.167,0.525-0.225
				c0-0.164,0-0.225-0.337-0.225h-0.188V72.178z"/>
			<path class="st1" d="M24.084,31.825c-0.785-0.711-1.234-1.571-1.496-2.244c-0.262-0.711-0.561-1.608-0.561-2.393
				c0-3.441,2.019-6.021,4.188-7.218c0.972-0.524,1.346-0.898,1.496-1.085c-0.075-0.037-0.15-0.075-0.224-0.075
				c-2.954,0-4.45-1.159-5.198-2.132c-0.711-0.898-1.047-2.094-1.047-3.366c0-0.636,0.075-1.272,0.262-1.945
				c0.823-1.384,1.608-1.01,2.094-0.299c0.299,0.449,2.431,1.945,5.011,2.169c1.907,0.187,2.917,1.122,3.441,1.832
				c0.598,0.86,0.86,1.907,0.86,2.767c0,0.374-0.037,0.711-0.112,1.01c-0.299,1.159-1.496,2.206-3.216,3.515l-0.972,0.785
				c-1.421,1.234-2.169,2.618-2.169,3.777c0,0.299,0.037,0.561,0.15,0.823c0.037,0.112,0.075,0.224,0.15,0.299
				c0.636,1.085,2.393,1.72,5.011,0.823c1.197-0.411,3.478-1.87,4.899-3.254c1.645-1.645,3.852-2.057,5.984-2.206
				c1.832-0.15,2.992-0.598,3.777-1.496c2.356-2.655,4.637-3.029,6.769-3.179c0.823-0.075,0.86-0.112,0.972-0.262
				c1.159-1.571,2.356-2.393,3.441-2.88c0.823-0.374,1.571-0.524,2.206-0.673l0.748-0.187l0.187-0.075
				c1.197-0.374,2.094-0.711,4.488-2.319l0.112-0.075l0,0l0.112-0.075l0,0l0.112-0.075l0,0l0.112-0.075l0,0l0.112-0.037l0,0
				l0.112-0.037l0,0l0.112-0.037l0,0l0.112-0.037l0,0l0.112-0.037l0,0l0.112-0.037l0,0l0.112-0.037l0,0l0.112-0.037l0.112-0.037l0,0
				l0.112-0.037l0,0l0.112-0.037l0,0l0.112-0.037l0,0l0.112-0.037l0,0l0.112-0.037l0,0l0.112-0.037l0,0l0.112-0.037l0,0h0.112l0,0
				h0.112l0,0h0.112l0,0h0.112l0,0h0.112l0,0h0.112l0,0h0.112l0,0h0.112h0.112l0,0h0.112h0.112l0,0h0.112l0,0l0,0
				c0.075,0,0.15,0,0.224,0h0.112l0,0h0.112l0,0h0.112l0,0h0.112l0,0h0.112l0,0h0.075l0,0h0.075l0,0h0.075l0,0h0.075l0,0h0.075l0,0
				c0.15,0.037,0.299,0.075,0.411,0.075l0.075,0.037l0,0c0.15,0.037,0.262,0.075,0.411,0.112l0.075,0.037h0.037
				c0.262,0.075,0.524,0.187,0.785,0.299l0.075,0.037l0.075,0.037C77.076,5.086,85.191,0.449,94.428,0l0,0c0.15,0,0.299,0,0.449,0
				s0.299,0,0.449,0s0.299,0,0.449,0s0.299,0,0.449,0s0.299,0,0.449,0s0.299,0,0.449,0l0,0c0.15,0,0.299,0,0.449,0.037l0,0
				c8.938,0.524,16.829,5.049,21.915,11.78c0.711-0.262,1.496-0.449,2.319-0.486h0.037h0.075h0.075h0.037h0.037h0.075h0.037h0.075
				h0.037h0.075h0.037h0.075h0.037h0.112h0.075l0,0h0.075l0,0h0.075l0,0h0.075l0,0H123l0,0c0.187,0.037,0.374,0.037,0.598,0.075
				h0.075l0,0l0.075,0.037l0,0l0.075,0.037l0,0l0.075,0.037l0,0l0.075,0.037l0,0l0.075,0.037l0,0l0.075,0.037l0,0l0.112,0.037
				l0.075,0.037l0,0l0.075,0.037l0,0l0.075,0.037l0,0c0.15,0.075,0.299,0.15,0.449,0.224l0,0l0.075,0.037l0,0l0.075,0.037l0,0
				l0.075,0.037l0,0l0.075,0.075l0,0l0.075,0.075c1.645,1.122,2.618,1.608,3.441,1.945c0.374,0.15,0.711,0.262,1.085,0.374
				l0.187,0.075l0.748,0.187c0.411,0.075,0.86,0.187,1.384,0.374c1.272,0.411,2.767,1.197,4.263,3.179
				c0.112,0.15,0.15,0.187,0.972,0.262c2.132,0.15,4.375,0.524,6.769,3.179c0.785,0.898,1.907,1.346,3.777,1.496
				c2.132,0.15,4.338,0.561,5.984,2.206c1.421,1.384,3.702,2.842,4.899,3.254c2.58,0.898,4.375,0.224,4.974-0.823
				c0.15-0.224,0.224-0.486,0.262-0.748c0.037-0.15,0.037-0.262,0.037-0.411c0-1.159-0.785-2.543-2.169-3.777l-0.187-0.15
				l-0.785-0.636c-1.683-1.346-2.917-2.356-3.216-3.515c-0.075-0.299-0.112-0.636-0.112-1.01c0-0.898,0.224-1.907,0.823-2.767
				c0.524-0.748,1.571-1.683,3.441-1.832c2.618-0.224,4.712-1.72,5.011-2.169c0.486-0.711,1.271-1.085,2.094,0.299
				c0.187,0.673,0.262,1.309,0.262,1.945c0,1.272-0.374,2.468-1.047,3.366c-0.748,0.972-2.244,2.132-5.198,2.132
				c-0.075,0-0.15,0.037-0.224,0.075c0.15,0.187,0.524,0.561,1.496,1.085c2.169,1.197,4.188,3.74,4.188,7.218
				c0,0.748-0.337,1.683-0.561,2.393c-0.224,0.636-0.598,1.346-1.234,2.019c-0.075,0.075-0.15,0.15-0.224,0.224
				c-1.234,1.122-3.254,2.019-6.657,1.832c-0.337-0.037-0.711-0.037-1.085-0.112c-0.075,1.72-0.561,3.74-1.234,4.749
				c-0.187,0.337-0.224,0.524-0.224,0.636c0,0.037,0,0.075,0,0.075c0.037,0,1.496,0.898,1.496,0.898l0.224,0.112l0.15,0.075
				c0.037,0,0.524-0.037,0.524-0.037h0.112l0,0c0.935-0.075,2.356-0.524,2.954,1.122c0.15,0.449,0.262,0.823,0.337,1.197
				c0.187,0.711,0.337,1.234,0.972,1.683c0,0,0.299-0.262,0.636-0.561c0.299-0.262,0.598-0.524,0.785-0.711
				c0.411-0.449,1.234-0.224,1.795,0c0.561,0.224,1.309,0.711,1.795,1.01c0.524,0.299,0.785,0.636,0.935,1.085
				s0.524,0.711,1.047,1.01c0.524,0.299,1.272,1.234,1.272,2.543c0,0.187,0.037,0.374,0.075,0.561
				c0.037,0.112,0.075,0.224,0.15,0.374c0.711,1.458,0.15,2.206-0.262,2.506c-0.561,0.411-1.571,0.598-2.506,0.449v0.224
				l-1.384-0.187c-0.524-0.075-1.234,0.075-1.645,0.15l-0.112,0.037c-0.972,0.187-2.244-0.15-2.992-1.309
				c-0.037-0.037-0.037-0.075-0.075-0.15c-0.374-0.636-0.935-1.234-1.197-1.421c-0.411,0.112-1.047,0.262-1.795,0.187
				c-0.711-0.075-1.533-0.337-2.356-1.01c-0.15-0.112-0.262-0.224-0.411-0.374c-1.197-1.234-2.805-1.458-3.815-1.309l-0.598,0.112
				c-1.234,0.224-2.767,0.524-4.226-0.374c-0.374-0.224-0.86-0.449-1.384-0.636c-1.309-0.561-2.655-1.159-2.805-2.356
				c-0.037-0.224-0.262-0.636-0.449-0.935c-0.187-0.299-0.374-0.598-0.486-0.935c-0.15-0.299-0.224-0.636-0.262-1.01
				c-0.411,0.112-0.86,0.15-1.309,0.15c-0.15,0-0.299-0.037-0.449-0.037l-0.561-0.075c-0.935-0.15-2.917-0.486-3.553-0.262
				c-1.272,0.449-5.236,0.673-6.32,0.411c0,0-0.411-0.075-0.785-0.15c-0.374,0.374-0.748,0.711-1.197,1.047
				c0.785,0.037,1.496-0.037,1.982,0.075l1.01,0.262c0.337-0.112,1.085-0.075,1.533-0.037l1.159,0.075l1.346,0.112
				c0.636,0.112,1.309,0.411,1.197,1.683c-0.037,0.374-0.262,0.935-0.598,1.272c-0.187,0.187-0.86,1.197-1.047,1.533l-0.037,0.112
				c-0.262,0.561-0.673,1.122-1.832,1.122c-0.15,0-0.337,0-0.449,0c-0.037,0.112-0.15,0.262-0.15,0.262
				c-0.262,0.598-0.636,1.421-1.384,1.907l-0.187,0.15c-0.598,0.411-1.571,1.122-3.067,0.561l-0.524-0.187
				c-1.309-0.486-3.254-1.159-4.263-1.72l-0.15-0.075c-0.935-0.524-1.122-0.598-1.458-0.561l-0.187,0.037
				c-0.711,0.112-2.057,0.262-2.954-1.272l-0.075-0.15c-4.375,6.021-10.957,10.322-18.549,11.705h-0.037
				c-0.262,0.037-0.524,0.075-0.785,0.15h-0.112l-0.374,0.037c-0.15,0.037-0.262,0.037-0.411,0.037l-0.262,0.037l-0.411,0.037
				L98.205,59.2c-0.187,0-0.374,0.037-0.561,0.037h-0.187c-0.15,0-0.337,0.037-0.486,0.037h-0.187c-0.187,0-0.374,0-0.598,0.037
				h-0.187c-0.224,0-0.411,0-0.598,0c-0.224,0-0.411,0-0.636,0h-0.187c-0.187,0-0.374,0-0.561-0.037h-0.224
				c-0.15,0-0.299,0-0.486-0.037h-0.187c-0.187,0-0.374-0.037-0.561-0.037l-0.262-0.037l-0.374-0.037l-0.187-0.037
				c-0.187-0.037-0.374-0.037-0.561-0.075l-0.224-0.037l-0.411-0.075l-0.224-0.037c-0.15-0.037-0.337-0.075-0.486-0.075
				l-0.337-0.075l-0.187-0.037c-0.224-0.037-0.486-0.112-0.711-0.15h-0.075l-0.374-0.075l-0.187-0.037
				c-0.224-0.075-0.449-0.112-0.673-0.187L87.21,58.19c-6.657-1.907-12.341-6.133-16.193-11.705l-0.524,0.785
				c-0.898,1.533-2.244,1.346-2.954,1.272l-0.187-0.037c-0.337-0.037-0.561,0.037-1.458,0.561l-0.15,0.075
				c-0.972,0.561-2.954,1.234-4.263,1.72l-0.524,0.187c-1.496,0.524-2.468-0.15-3.029-0.561l-0.187-0.15
				c-0.711-0.486-1.122-1.309-1.384-1.907c0,0-0.075-0.187-0.112-0.262c-0.112,0-0.299,0-0.449,0c-1.159,0-1.571-0.524-1.832-1.122
				l-0.037-0.112c-0.15-0.337-0.86-1.346-1.047-1.533c-0.337-0.337-0.561-0.86-0.598-1.272c-0.112-1.272,0.561-1.533,1.197-1.683
				l1.346-0.112l1.159-0.075c0.449-0.037,1.234-0.037,1.533,0.037l1.01-0.262c0.486-0.112,1.197-0.037,1.982-0.075
				c-0.411-0.299-0.823-0.673-1.197-1.047c-0.374,0.075-0.785,0.15-0.785,0.15c-1.085,0.262-5.049,0.037-6.283-0.411
				c-0.636-0.224-2.618,0.112-3.59,0.262l-0.561,0.075c-0.598,0.075-1.197,0.037-1.758-0.075c-0.037,0.711-0.411,1.384-0.748,1.907
				c-0.187,0.337-0.449,0.711-0.486,0.935c-0.187,1.234-1.533,1.795-2.805,2.356c-0.486,0.224-1.01,0.449-1.384,0.636
				c-1.421,0.86-2.954,0.598-4.226,0.374l-0.598-0.112c-1.01-0.15-2.618,0.112-3.815,1.309c-1.87,1.87-3.702,1.458-4.562,1.234
				c-0.262,0.15-0.86,0.748-1.234,1.421c-0.711,1.272-2.057,1.645-3.067,1.421l-0.112-0.037c-0.411-0.075-1.122-0.224-1.645-0.15
				l-1.384,0.187v-0.224c-0.935,0.15-1.945-0.037-2.506-0.449c-0.411-0.299-1.01-1.047-0.262-2.506
				c0.187-0.337,0.224-0.598,0.224-0.935c0-1.272,0.748-2.244,1.272-2.543c0.561-0.299,0.898-0.561,1.047-1.01
				c0.15-0.449,0.411-0.785,0.935-1.085c0.486-0.299,1.234-0.785,1.795-1.01s1.384-0.449,1.795,0
				c0.449,0.411,1.421,1.309,1.421,1.309c0.935-0.711,0.823-1.533,1.309-2.88c0.598-1.683,2.019-1.234,2.954-1.122h0.112
				c0,0,0.486,0.037,0.524,0.037s0.15-0.075,0.15-0.075l0.224-0.112c0,0,1.496-0.86,1.496-0.898c0,0,0-0.037,0-0.075
				c0-0.112-0.037-0.337-0.224-0.636c-0.673-1.01-1.122-3.067-1.234-4.749c-0.224,0.037-0.486,0.037-0.711,0.075
				c-3.628,0.299-5.759-0.636-7.031-1.795l0,0L24.084,31.825z M160.098,40.09h-0.112H160.098z M123.673,11.631
				c-0.187-0.037-0.374-0.075-0.598-0.075L123.673,11.631z M125.206,12.192c-0.15-0.075-0.299-0.15-0.449-0.224L125.206,12.192z
				 M99.626,59.275c0.15,0,0.262-0.037,0.411-0.037L99.626,59.275z M98.13,59.424c0.187,0,0.374-0.037,0.561-0.037L98.13,59.424z
				 M97.457,59.462c0.15,0,0.337-0.037,0.486-0.037L97.457,59.462z M96.672,59.499c0.187,0,0.374,0,0.598-0.037L96.672,59.499z
				 M95.213,59.499c0.224,0,0.411,0,0.636,0c0.224,0,0.411,0,0.598,0H95.213z M94.466,59.462c0.187,0,0.374,0,0.561,0.037
				L94.466,59.462z M93.755,59.424c0.15,0,0.299,0.037,0.486,0.037L93.755,59.424z M93.007,59.349c0.187,0,0.374,0.037,0.561,0.037
				L93.007,59.349z M91.586,59.163c0.187,0.037,0.374,0.037,0.561,0.075L91.586,59.163z M90.24,58.938
				c0.15,0.037,0.337,0.075,0.486,0.075L90.24,58.938z"/>
			<path class="st0" d="M69.559,22.102c-0.224-0.374-0.112-0.748,0.075-1.122c0.486-0.748,0.935,0.075,0.935,0.075
				c1.645,2.281,0.411,5.722,0.411,5.722C70.793,23.635,69.559,22.102,69.559,22.102L69.559,22.102z M83.733,37.285
				c0.037-0.673,0.075-2.169-0.598-2.693c-0.262-0.187-1.234-1.309-1.234-1.309c-0.15-0.262-0.262-0.299-0.262-0.299
				c-0.187-0.037-0.486,0.449-0.486,0.449c-0.711,1.384-1.421,1.197-1.421,1.197c0-0.262,0.15-0.524,0.15-0.524
				c0.187-0.374,1.01-2.019,1.01-2.019c0.112-0.224,0.187-0.561,0.187-0.561c0.673-1.047,1.346-0.262,1.346-0.262
				c0.299,0.561,1.832,2.393,1.832,2.393c0.337,0.411,0.374,0.86,0.374,0.86c0.374,2.506-0.898,2.73-0.898,2.73l0,0V37.285z
				 M79.694,43.68c-0.299,0-0.374-0.112-0.337-0.449c0.187-0.898,0.898-1.272,0.898-1.272c1.346-0.785,1.496,0,1.496,0
				c0.262,1.421-0.898,1.608-0.898,1.608c-0.224,0.075-1.197,0.112-1.197,0.112l0,0H79.694z M21.242,47.831
				c0,0,0.299,0.224,0.15,0.636c0,0-0.748,2.057-0.711,2.73c0,0-1.645,0.299-1.87-0.524c0,0-0.037-0.299,0.224-0.785
				c0,0,0.299-0.411,0.337-1.197c0,0-0.037-1.982,1.234-1.458c0.262,0.15,0.449,0.337,0.636,0.561l0,0V47.831z M23.261,44.578
				c0.262-0.224,0.673-0.374,1.047-0.262c0.785,0.187,0.299,0.86,0.299,0.86c-0.337,0.598-1.384,1.645-1.384,1.645
				c-0.935,0.711-1.683-0.15-1.683-0.15c-0.711-0.673,0.224-1.01,0.224-1.01c0.524-0.224,1.533-1.085,1.533-1.085l0,0H23.261z
				 M32.984,32.274c0,0-0.299,2.917,1.01,5.46c0,0,0.972,1.384-0.037,2.244l-2.019,1.159c0,0-0.262,0.187-1.159,0.15
				c0,0-1.234-0.299-1.645,0.224c0,0-0.374,1.047-0.823,1.907c0,0-0.898,2.094-2.431,2.767c0,0-1.197,0.262-1.571,1.309
				c0,0-0.374,0.748-1.159,0.748c0,0-0.598,0.187-0.972,1.496c0,0-0.224,0.823-0.187,1.496c0,0,1.01-0.112,1.645,0.112
				c0,0,1.571,0.524,2.281-0.785c0,0,1.384-2.356,2.393-1.982c0,0,2.057,0.673,3.478-0.823c0,0,1.982-2.169,4.787-1.72
				c0,0,3.141,0.636,4.151-0.075c0,0,1.982-1.047,2.73-1.309c0,0,0.898-0.262,1.01-1.272c0,0,0.561-1.421,0.972-1.87h-1.496
				c0,0-1.346,2.281-3.665,2.992c0,0-1.272,0.524-3.815,0.112c0,0-3.665-0.823-6.844,2.618c0,0-0.449,0.636-1.047,0.374
				c0,0,1.758-3.029,5.647-3.74c0,0,1.272-0.262,2.319-0.112c0,0,5.236,0.15,7.666-5.011c0,0-0.262-4.375,0.898-5.423
				c0,0,0.449-0.15,0.374,0.711c0,0-0.785,4.6,0.711,5.497c0,0,0.86,0.673,2.468,0.411c0,0,2.431-0.598,4.413-0.224
				c0,0,3.029,0.711,5.647,0.374c0,0-0.673-1.047-0.561-2.281c0,0,0.374-0.898,0.823-0.337c0,0,1.01,3.328,3.74,4.338
				c0,0,2.468,0.898,2.431,4.002c0,0-0.374,0.411-3.628,1.571c0,0-1.234,0.374-1.608-0.524c0,0-1.571-3.366-2.954-3.254l-2.58,0.224
				c0,0-0.86,0.224-0.224,0.935c0,0,0.898,1.159,1.234,1.87c0,0,0.112,0.598,0.935,0.486c0,0,1.159-0.561,1.795,1.571
				c0,0,0.598,1.085,1.608,1.421c0,0,0.935,0.299,1.832-0.187c0,0,4.226-1.571,4.974-2.094c0,0,0.935-0.524,1.645-0.262
				c0,0,1.272,0.299,1.795-0.711l1.309-2.019c0,0,0.299-0.486,0.262-1.122c0,0,0.112-0.636-0.411-1.272c0,0-0.486-0.524-0.561-0.898
				l-0.935-2.206c0,0-0.374-0.598-0.785-0.823l-1.234,0.075c0,0,0.86,2.206,1.496,3.104c0,0,0.86,1.309,0.823,2.132
				c0,0-0.075,0.598-0.299,0.823c0,0-0.299,0.449-0.411,0.673c0,0-0.374,0.823-0.673,1.01c0,0-0.524,0.299-0.673,0.337
				c0,0-0.224,0.075-0.075-0.337c0,0,0.711-1.458,0.673-2.281c0,0,0.15-0.823-0.449-1.309c0,0-1.346-2.169-1.571-2.805
				c0,0-0.411-0.86-0.673-1.01c0,0-0.486-0.636,0.299-0.935c0,0,1.907-0.449,2.244-0.673c0,0,0.935-0.262,1.533-2.206
				c0,0,0.823-2.244,0.823-3.628c0,0,1.608,3.104-0.972,6.283c0,0,2.019,0.598,2.88,0c0,0,2.543-0.374,3.029-0.524
				c0,0,0.636-0.15,0.262,0.299c0,0-0.748,1.085-0.823,1.795c0,0-0.037,0.561-0.524,0.898c0,0-1.458,1.01-1.571,1.982
				c0,0-0.299,0.935,0.337,0.711c0,0,0.86-0.411,1.159,0c0,0,0.075,0.037-0.262,0.411c0,0-0.86,0.748-0.935,1.758
				c0,0,0.15,1.159,0.449,1.533c0,0,0.374,0.524,1.01,0.374c0,0,0.15-0.15,0.449-0.037c0,0,0.299,0,1.085-0.262
				c0,0,1.197-0.337,1.608-0.486c0,0,1.533-0.561,2.281-0.524c0,0,0.486-0.037,1.122,0.075c0,0,1.907,0.224,3.216-1.197
				c0,0,0.972-0.785,1.309-0.037c0,0,2.356,3.141,6.133,2.319c0,0-3.029-1.234-3.777-2.917c0,0-0.112-1.421-1.683-3.403
				c0,0-0.486-0.673,0-0.823c0,0,0.262-0.187,0.86,0.374c0,0,1.496,1.421,2.057,2.767c0,0,1.87,2.805,4.562,1.87
				c0,0-2.094-0.823-3.104-2.319c0,0-0.598-2.057-2.655-3.59c0,0-0.075-2.319-1.047-3.59c0,0-0.486-2.169-0.636-2.655
				c0,0-0.524-1.907-0.524-2.431c0,0,0.187-2.468-1.421-4.413c0,0-1.085-2.057-2.73-3.515c0,0-1.272-1.571-2.206-2.543
				c0,0-1.234-1.458-3.964-3.366c0,0-1.234-0.898-2.132-1.832c0,0-4.787-3.441-8.227-0.673c0,0-2.393,1.608-4.375,2.132
				c0,0-4.076,0.486-5.834,3.328c0,0-0.15,0.524-1.795,0.711c0,0-3.628-0.449-6.283,3.141c0,0-1.234,1.197-3.702,1.496
				c0,0-4.002-0.411-6.619,2.655c0,0-6.582,5.722-10.471,2.019c0,0-2.019-1.907,0.299-5.385c0,0,1.458-1.795,3.964-3.628
				c0,0,2.019-1.421,1.122-3.665c0,0-0.486-2.169-3.553-2.206c0,0-3.815-0.748-5.385-2.693c0,0-1.72,6.096,5.049,5.984
				c0,0,1.758,0.262,1.159,1.683c0,0-0.86,1.197-2.019,1.645c0,0-2.057,0.898-2.992,3.889c0,0-2.057,5.236,2.992,7.218
				c1.945,0.673,4.188,0.486,6.171,0.112l0,0L32.984,32.274z"/>
			<path class="st0" d="M121.242,22.102c0.224-0.374,0.112-0.748-0.075-1.122c-0.486-0.748-0.935,0.075-0.935,0.075
				c-1.645,2.281-0.449,5.722-0.449,5.722c0.15-3.141,1.421-4.675,1.421-4.675l0,0H121.242z M107.068,37.285
				c-0.037-0.673-0.075-2.169,0.598-2.693c0.262-0.187,1.234-1.309,1.234-1.309c0.15-0.262,0.262-0.299,0.262-0.299
				c0.187-0.037,0.486,0.449,0.486,0.449c0.711,1.384,1.421,1.197,1.421,1.197c0-0.262-0.15-0.524-0.15-0.524
				c-0.187-0.374-1.01-2.019-1.01-2.019c-0.112-0.224-0.187-0.561-0.187-0.561c-0.673-1.047-1.346-0.262-1.346-0.262
				c-0.299,0.561-1.832,2.393-1.832,2.393c-0.337,0.411-0.374,0.86-0.374,0.86c-0.374,2.506,0.898,2.73,0.898,2.73l0,0V37.285z
				 M111.107,43.68c0.299,0,0.374-0.112,0.337-0.449c-0.187-0.898-0.898-1.272-0.898-1.272c-1.346-0.785-1.496,0-1.496,0
				c-0.262,1.421,0.898,1.608,0.898,1.608c0.224,0.075,1.197,0.112,1.197,0.112l0,0H111.107z M169.559,47.831
				c0,0-0.299,0.224-0.15,0.636c0,0,0.748,2.057,0.711,2.73c0,0,1.645,0.299,1.87-0.524c0,0,0.037-0.299-0.224-0.785
				c0,0-0.299-0.411-0.337-1.197c0,0,0.037-1.982-1.234-1.458c-0.262,0.15-0.449,0.337-0.636,0.561l0,0V47.831z M167.54,44.578
				c-0.262-0.224-0.673-0.374-1.047-0.262c-0.823,0.187-0.299,0.86-0.299,0.86c0.337,0.598,1.384,1.645,1.384,1.645
				c0.935,0.711,1.683-0.15,1.683-0.15c0.711-0.673-0.224-1.01-0.224-1.01c-0.524-0.224-1.533-1.085-1.533-1.085l0,0H167.54z
				 M157.817,32.274c0,0,0.299,2.917-1.01,5.46c0,0-0.972,1.384,0.037,2.244l2.019,1.159c0,0,0.262,0.187,1.159,0.15
				c0,0,1.234-0.299,1.645,0.224c0,0,0.374,1.047,0.823,1.907c0,0,0.898,2.094,2.431,2.767c0,0,1.197,0.262,1.571,1.309
				c0,0,0.374,0.748,1.159,0.748c0,0,0.598,0.187,0.972,1.496c0,0,0.224,0.823,0.187,1.496c0,0-1.01-0.112-1.645,0.112
				c0,0-1.571,0.524-2.281-0.785c0,0-1.384-2.356-2.393-1.982c0,0-2.057,0.673-3.478-0.823c0,0-1.982-2.169-4.787-1.72
				c0,0-3.141,0.636-4.151-0.075c0,0-1.982-1.047-2.73-1.309c0,0-0.898-0.262-1.01-1.272c0,0-0.561-1.421-0.972-1.87h1.496
				c0,0,1.346,2.281,3.665,2.992c0,0,1.272,0.524,3.815,0.112c0,0,3.665-0.823,6.844,2.618c0,0,0.449,0.636,1.047,0.374
				c0,0-1.758-3.029-5.647-3.74c0,0-1.272-0.262-2.319-0.112c0,0-5.236,0.15-7.666-5.011c0,0,0.262-4.375-0.898-5.423
				c0,0-0.449-0.15-0.374,0.711c0,0,0.785,4.6-0.711,5.497c0,0-0.86,0.673-2.468,0.411c0,0-2.431-0.598-4.413-0.224
				c0,0-3.029,0.711-5.647,0.374c0,0,0.673-1.047,0.561-2.281c0,0-0.374-0.898-0.823-0.337c0,0-1.01,3.328-3.74,4.338
				c0,0-2.468,0.898-2.431,4.002c0,0,0.374,0.411,3.628,1.571c0,0,1.234,0.374,1.608-0.524c0,0,1.571-3.366,2.954-3.254l2.58,0.224
				c0,0,0.86,0.224,0.224,0.935c0,0-0.86,1.159-1.234,1.87c0,0-0.112,0.598-0.935,0.486c0,0-1.159-0.561-1.795,1.571
				c0,0-0.598,1.085-1.608,1.421c0,0-0.935,0.299-1.832-0.187c0,0-4.226-1.571-4.974-2.094c0,0-0.935-0.524-1.645-0.262
				c0,0-1.272,0.299-1.795-0.711l-1.309-2.019c0,0-0.299-0.486-0.262-1.122c0,0-0.112-0.636,0.411-1.272
				c0,0,0.486-0.524,0.561-0.898l0.935-2.206c0,0,0.374-0.598,0.785-0.823l1.234,0.075c0,0-0.86,2.206-1.496,3.104
				c0,0-0.86,1.309-0.823,2.132c0,0,0.075,0.598,0.299,0.823c0,0,0.299,0.449,0.411,0.673c0,0,0.374,0.823,0.673,1.01
				c0,0,0.524,0.299,0.673,0.337c0,0,0.224,0.075,0.075-0.337c0,0-0.711-1.458-0.673-2.281c0,0-0.15-0.823,0.449-1.309
				c0,0,1.346-2.169,1.571-2.805c0,0,0.411-0.86,0.673-1.01c0,0,0.486-0.636-0.299-0.935c0,0-1.907-0.449-2.244-0.673
				c0,0-0.935-0.262-1.533-2.206c0,0-0.823-2.244-0.823-3.628c0,0-1.608,3.104,0.972,6.283c0,0-2.019,0.598-2.88,0
				c0,0-2.543-0.374-3.029-0.524c0,0-0.636-0.15-0.262,0.299c0,0,0.748,1.085,0.823,1.795c0,0,0.037,0.561,0.524,0.898
				c0,0,1.458,1.01,1.571,1.982c0,0,0.299,0.935-0.337,0.711c0,0-0.86-0.411-1.159,0c0,0-0.075,0.037,0.262,0.411
				c0,0,0.86,0.748,0.935,1.758c0,0-0.15,1.159-0.449,1.533c0,0-0.374,0.524-1.01,0.374c0,0-0.15-0.15-0.449-0.037
				c0,0-0.299,0-1.085-0.262c0,0-1.197-0.337-1.608-0.486c0,0-1.533-0.561-2.281-0.524c0,0-0.486-0.037-1.122,0.075
				c0,0-1.907,0.224-3.216-1.197c0,0-0.972-0.785-1.309-0.037c0,0-2.356,3.141-6.133,2.319c0,0,3.029-1.234,3.777-2.917
				c0,0,0.112-1.421,1.683-3.403c0,0,0.486-0.673,0-0.823c0,0-0.262-0.187-0.86,0.374c0,0-1.496,1.421-2.057,2.767
				c0,0-1.87,2.805-4.562,1.87c0,0,2.094-0.823,3.104-2.319c0,0,0.598-2.057,2.655-3.59c0,0,0.075-2.319,1.047-3.59
				c0,0,0.486-2.169,0.636-2.655c0,0,0.524-1.907,0.524-2.431c0,0-0.187-2.468,1.421-4.413c0,0,1.085-2.057,2.73-3.515
				c0,0,1.272-1.571,2.206-2.543c0,0,1.234-1.458,3.964-3.366c0,0,1.234-0.898,2.132-1.832c0,0,4.787-3.441,8.227-0.673
				c0,0,2.393,1.608,4.375,2.132c0,0,4.076,0.486,5.834,3.328c0,0,0.15,0.524,1.795,0.711c0,0,3.628-0.449,6.283,3.141
				c0,0,1.234,1.197,3.702,1.496c0,0,4.002-0.411,6.619,2.655c0,0,6.582,5.722,10.471,2.019c0,0,2.019-1.907-0.299-5.385
				c0,0-1.458-1.795-3.964-3.628c0,0-2.019-1.421-1.122-3.665c0,0,0.486-2.169,3.553-2.206c0,0,3.815-0.748,5.385-2.693
				c0,0,1.72,6.096-5.049,5.984c0,0-1.758,0.262-1.159,1.683c0,0,0.86,1.197,2.019,1.645c0,0,2.057,0.898,2.992,3.889
				c0,0,2.057,5.236-2.992,7.218c-1.945,0.673-4.188,0.486-6.171,0.112l0,0L157.817,32.274z"/>
			<path class="st0" d="M37.809,95.737h10.097c0,0-0.411-4.749-4.974-4.749S37.809,95.737,37.809,95.737L37.809,95.737z
				 M43.082,85.228c13.613,0,13.052,13.239,13.052,13.239v2.094H37.696c0,3.029,2.506,5.61,5.946,5.61
				c3.441,0,5.198-3.291,5.198-3.291l6.507,3.216c-3.029,4.562-7.068,6.395-11.631,6.395c-14.174,0-14.435-11.78-14.435-13.239
				C29.282,97.794,29.506,85.228,43.082,85.228L43.082,85.228z M73.373,105.086L73.373,105.086c-0.411,0-5.684,0.075-5.684-6.395
				c0-6.47,5.759-6.657,5.759-6.657s6.432,0.224,6.432,6.507c0,6.32-6.096,6.507-6.507,6.507l0,0V105.086z M79.544,68.811v19.447
				c0,0-3.927-3.029-8.414-3.029c-4.488,0-12.042,3.141-12.042,13.126c0,9.948,6.47,13.762,12.005,13.762s8.639-3.665,8.639-3.665
				v3.254h8.003V68.848h-8.115L79.544,68.811z M133.471,86.575h8.115v14.361c0,0,0.299,4.824,4.824,4.824
				c4.562,0,4.488-4.824,4.488-4.824V86.612h8.19v14.809c0,0,1.047,11.556-12.491,11.556s-13.164-10.172-13.164-12.005
				s0-14.435,0-14.435l0,0L133.471,86.575z M163.875,68.811h8.04v42.857h-8.04V68.811z M177.525,68.811h7.928v42.857h-7.928V68.811z
				 M117.203,104.525L117.203,104.525h-7.592V77.712h4.076c0,0,5.535-0.411,5.535,4.413s-4.413,4.413-4.413,4.413h-2.543v7.218
				c0,0,3.628,0,4.936,0s5.423,0.636,5.423,5.385c0,4.749-5.423,5.423-5.423,5.423l0,0V104.525z M124.047,89.305
				c0,0,3.702-2.88,3.702-8.377c0-5.497-3.964-10.434-12.453-10.434s-14.174,0-14.174,0v41.174h17.465
				c0,0,12.528-0.15,12.528-11.481c0-6.582-2.543-9.088-7.068-10.92l0,0V89.305z M0,69.634v42.035h8.489V77.637h4.002
				c0,0,6.245-0.299,6.245,5.385s-5.535,5.535-5.535,5.535h-2.019v9.686l8.489,13.388h9.948L17.764,94.428
				c0,0,9.761-0.823,9.761-11.444c0-10.583-7.367-13.426-17.165-13.426s-10.322,0-10.322,0l0,0L0,69.634z"/>
		</g>
	</g>
</g>
</svg>
